squats_1_grf
version=1
nRows=12
nColumns=19
inDegrees=no
endheader
time	ground_force_right_vx	ground_force_right_vy	ground_force_right_vz	ground_force_right_px	ground_force_right_py	ground_force_right_pz	ground_force_right_mx	ground_force_right_my	ground_force_right_mz	ground_force_left_vx	ground_force_left_vy	ground_force_left_vz	ground_force_left_px	ground_force_left_py	ground_force_left_pz	ground_force_left_mx	ground_force_left_my	ground_force_left_mz
     25.48000000	     -0.99416323	    369.81284147	     39.82934371	     -3.46706294	      0.00739177	      2.28287536	     -0.01054178	      3.61661566	      0.01637514	     -0.47246908	    377.13448741	    -42.71818615	     -3.45323632	      0.00800902	      2.67259314	      0.01349015	     -4.06023332	      0.00705051
     25.48100000	     -0.93727545	    369.67684216	     39.83124345	     -3.46707041	      0.00739174	      2.28287731	     -0.01054684	      3.61835299	      0.01638300	     -0.46283153	    377.01240305	    -42.69255649	     -3.45322118	      0.00800906	      2.67259001	      0.01350352	     -4.06425849	      0.00705750
     25.48200000	     -0.87689648	    369.54287581	     39.83307870	     -3.46707833	      0.00739171	      2.28287885	     -0.01055177	      3.62004227	      0.01639065	     -0.45352384	    376.88891901	    -42.66689119	     -3.45320358	      0.00800912	      2.67258648	      0.01351685	     -4.06826996	      0.00706446
     25.48300000	     -0.81326760	    369.41147679	     39.83473070	     -3.46708661	      0.00739168	      2.28288001	     -0.01055659	      3.62169807	      0.01639815	     -0.44466743	    376.76449416	    -42.64107348	     -3.45318356	      0.00800918	      2.67258256	      0.01353016	     -4.07227556	      0.00707142
     25.48400000	     -0.74668440	    369.28321572	     39.83608026	     -3.46709513	      0.00739165	      2.28288082	     -0.01056137	      3.62333559	      0.01640556	     -0.43639716	    376.63952219	    -42.61498447	     -3.45316120	      0.00800924	      2.67257824	      0.01354347	     -4.07628055	      0.00707837
     25.48500000	     -0.67749486	    369.15869496	     39.83700940	     -3.46710379	      0.00739163	      2.28288132	     -0.01056613	      3.62497057	      0.01641296	     -0.42885758	    376.51432593	    -42.58850518	     -3.45313657	      0.00800932	      2.67257353	      0.01355678	     -4.08028760	      0.00708533
     25.48600000	     -0.60609658	    369.03854363	     39.83740288	     -3.46711247	      0.00739160	      2.28288154	     -0.01057094	      3.62661916	      0.01642043	     -0.42219896	    376.38915329	    -42.56151847	     -3.45310976	      0.00800940	      2.67256843	      0.01357010	     -4.08429674	      0.00709229
     25.48700000	     -0.53293334	    368.92341223	     39.83714990	     -3.46712106	      0.00739157	      2.28288153	     -0.01057583	      3.62829779	      0.01642803	     -0.41657327	    376.26417481	    -42.53391103	     -3.45308089	      0.00800948	      2.67256294	      0.01358342	     -4.08830544	      0.00709925
     25.48800000	     -0.45849088	    368.81396676	     39.83614571	     -3.46712942	      0.00739155	      2.28288132	     -0.01058086	      3.63002306	      0.01643584	     -0.41213016	    376.13948266	    -42.50557516	     -3.45305007	      0.00800957	      2.67255708	      0.01359672	     -4.09230872	      0.00710620
     25.48900000	     -0.38329203	    368.71088242	     39.83429329	     -3.46713744	      0.00739153	      2.28288094	     -0.01058607	      3.63181156	      0.01644394	     -0.40901292	    376.01509119	    -42.47641045	     -3.45301743	      0.00800967	      2.67255085	      0.01360998	     -4.09629933	      0.00711313
     25.49000000	     -0.30789119	    368.61483690	     39.83150491	     -3.46714500	      0.00739151	      2.28288044	     -0.01059152	      3.63367981	      0.01645240	     -0.40735455	    375.89093868	    -42.44632516	     -3.45298311	      0.00800978	      2.67254428	      0.01362316	     -4.10026794	      0.00712003
     25.49100000	     -0.23286818	    368.52650333	     39.82770364	     -3.46715196	      0.00739149	      2.28287985	     -0.01059724	      3.63564402	      0.01646129	     -0.40727396	    375.76689050	    -42.41523736	     -3.45294725	      0.00800988	      2.67253737	      0.01363624	     -4.10420342	      0.00712686
